<?xml version="1.0" encoding="UTF-8"?>
<svg width="28px" height="28px" viewBox="0 0 28 28" version="1.1" xmlns="http://www.w3.org/2000/svg" xmlns:xlink="http://www.w3.org/1999/xlink">
    <title>atoms/icon/copy</title>
    <g id="atoms/icon/copy" stroke="none" stroke-width="1" fill="none" fill-rule="evenodd">
        <g>
            <rect id="Rectangle" x="0" y="0" width="28" height="28"></rect>
            <path d="M16.9008,28 L4.7124,28 C3.01136297,28 1.6324,26.621037 1.6324,24.92 L1.6324,8.8592 C1.6324,7.15816297 3.01136297,5.7792 4.7124,5.7792 L16.9008,5.7792 C18.601837,5.7792 19.9808,7.15816297 19.9808,8.8592 L19.9808,24.92 C19.9808,26.621037 18.601837,28 16.9008,28 L16.9008,28 Z M4.7124,7.3388 C3.87334538,7.34034097 3.19354097,8.02014538 3.192,8.8592 L3.192,24.92 C3.19354097,25.7590546 3.87334538,26.438859 4.7124,26.4404 L16.9008,26.4404 C17.7398546,26.438859 18.419659,25.7590546 18.4212,24.92 L18.4212,8.8592 C18.419659,8.02014538 17.7398546,7.34034097 16.9008,7.3388 L4.7124,7.3388 Z" id="Shape" fill="#2D3E50"></path>
            <path d="M23.6432,20.9356059 L22.96,20.9356059 C22.5316479,20.9356059 22.1844,20.5883521 22.1844,20.16 C22.1844,19.7316479 22.5316479,19.3844 22.96,19.3844 L23.6544,19.3844 C24.2970626,19.3828607 24.8176607,18.8622626 24.8192,18.2196 L24.8192,3.08 C24.817659,2.24094538 24.1378546,1.56114097 23.2988,1.5596 L12.0204,1.5596 C11.3803649,1.55958336 10.8602156,2.07598154 10.8556,2.716 C10.8556,3.14435205 10.5083521,3.4916 10.08,3.4916 C9.65164795,3.4916 9.3044,3.14435205 9.3044,2.716 C9.30594335,1.21663436 10.5210344,0.00154335237 12.0204,0 L23.2876,0 C24.988637,0 26.3676,1.37896297 26.3676,3.08 L26.3676,18.228 C26.3614266,19.7273639 25.1425734,20.938701 23.6432,20.9356059 Z" id="Path" fill="#2D3E50"></path>
        </g>
    </g>
</svg>