<?xml version="1.0" encoding="UTF-8"?>
<svg width="24px" height="24px" viewBox="0 0 24 24" version="1.1" xmlns="http://www.w3.org/2000/svg" xmlns:xlink="http://www.w3.org/1999/xlink">
    <title>FE98D063-E4B1-4025-84B0-F964208CCC28</title>
    <g id="Admin" stroke="none" stroke-width="1" fill="none" fill-rule="evenodd">
        <g id="Share-link-mail" transform="translate(-22.000000, -656.000000)">
            <g id="Group-10">
                <g id="Group-9" transform="translate(0.000000, 549.000000)">
                    <g id="Group-8" transform="translate(22.000000, 19.000000)">
                        <g id="Group-7" transform="translate(0.000000, 88.000000)">
                            <g id="atoms/icon/mail">
                                <g>
                                    <rect id="Rectangle" fill="#D8D8D8" opacity="0" x="0" y="0" width="24" height="24"></rect>
                                    <path d="M3.01373336,17.3406165 C3.14648923,18.3660411 3.83773526,18.9382646 4.95471562,18.951998 L4.95929341,18.951998 L18.6835028,18.951998 C19.9378168,18.951998 20.6336407,18.2561742 20.647374,16.9927046 L20.647374,16.9881268 L20.647374,16.9881268 L20.647374,6.96734815 C20.647374,6.96277036 20.647374,6.95819257 20.647374,6.95361478 C20.6336407,6.48668037 20.5420849,6.11587952 20.3635511,5.81374549 C20.3589734,5.80458991 20.3543956,5.79543433 20.3498178,5.78627876 C20.3360844,5.75881203 20.3177733,5.7313453 20.2994621,5.70845635 C20.2994621,5.70845635 20.2994621,5.70387857 20.2948843,5.70387857 C20.1987508,5.56196713 20.0751505,5.43836684 19.9286613,5.34681108 C19.8874612,5.31018877 19.8462611,5.28272204 19.7959054,5.25525531 C19.653994,5.17743291 19.5029269,5.11792166 19.3243932,5.07672156 C19.1183927,5.01721032 18.8986589,4.98974359 18.6651917,5.00347695 L4.96844898,5.00347695 C4.05289132,4.9851658 3.57680133,5.36970002 3.34333412,5.69930078 C3.11444471,6.01974596 3,6.4363247 3,6.97192593 L3,16.9927046 L3,16.9927046 C3,17.1025715 3,17.2170162 3.01373336,17.3406165 Z M9.45925934,12.0715821 L3.91555767,16.0908803 L3.91555767,6.96734815 C3.91555767,6.81628113 3.92929103,6.68352527 3.95217997,6.56450277 L9.45925934,12.0715821 Z M18.6880806,18.0364403 L4.96844898,18.0364403 C4.40538102,18.0272848 4.01169122,17.8853733 3.92471324,17.221594 C3.92471324,17.2170162 3.92471324,17.2170162 3.92471324,17.2124384 L10.1184609,12.7262059 L10.4984173,13.1061623 L10.5029951,13.1107401 C11.0614853,13.6554969 11.6657533,13.8431862 12.2883325,13.6692303 C12.2929103,13.6692303 12.2974881,13.6646525 12.3020659,13.6646525 C12.5767332,13.5776745 12.8605561,13.4082963 13.1352234,13.1610958 C13.1581123,13.1427846 13.1764235,13.1198957 13.1947346,13.0970067 C13.208468,13.0832734 13.2222013,13.0741178 13.2359347,13.0603844 L13.5426465,12.7536726 L19.7272386,17.2170162 C19.6585717,17.8029731 19.3518599,18.0364403 18.6880806,18.0364403 Z M19.6997718,6.60570287 C19.7226608,6.71556979 19.7363941,6.83459228 19.7409719,6.97192593 L19.7409719,16.0954581 L14.2064258,12.1036267 L19.6997718,6.60570287 Z M4.95471562,5.91445683 C4.95929341,5.91445683 4.95929341,5.91445683 4.96387119,5.91445683 L18.6880806,5.91445683 C18.6972362,5.91445683 18.7063918,5.91445683 18.7155473,5.91445683 C18.8437254,5.90530125 18.9581701,5.91903462 19.0588815,5.94650135 L13.2359347,11.7694481 C13.2130458,11.7877593 13.185579,11.8060704 13.1672679,11.8289594 L12.6087777,12.3874495 C12.5629998,12.4240718 12.5217997,12.4606941 12.4851774,12.506472 C12.320377,12.6483835 12.16931,12.7399392 12.0273986,12.7902949 C11.8397093,12.8406506 11.5467308,12.8589617 11.1393077,12.4606941 L10.4892617,11.8106482 L10.4892617,11.8106482 L4.62053707,5.93734577 C4.72124841,5.92361241 4.83111533,5.91445683 4.95471562,5.91445683 Z" id="Shape" fill="#516F90"></path>
                                </g>
                            </g>
                        </g>
                    </g>
                </g>
            </g>
        </g>
    </g>
</svg>