<?xml version="1.0" encoding="UTF-8"?>
<svg width="32px" height="32px" viewBox="0 0 32 32" version="1.1" xmlns="http://www.w3.org/2000/svg" xmlns:xlink="http://www.w3.org/1999/xlink">
    <title>57471822-05A8-4CAB-B67A-6C6AB53FE9E6</title>
    <g id="Admin" stroke="none" stroke-width="1" fill="none" fill-rule="evenodd">
        <g id="Share-link-mail" transform="translate(-322.000000, -611.000000)">
            <g id="Group-10">
                <g id="Group-9" transform="translate(0.000000, 549.000000)">
                    <g id="Group-8" transform="translate(22.000000, 19.000000)">
                        <g id="atoms/icon/send-copy" transform="translate(300.000000, 43.000000)">
                            <g id="atoms/icon/send">
                                <rect id="Rectangle" fill="#D8D8D8" opacity="0" x="0" y="0" width="32" height="32"></rect>
                                <path d="M6.81663473,12.45855 C6.70056366,12.5835374 6.6476417,12.7545326 6.6728176,12.923235 C6.6979935,13.0919374 6.79853388,13.240031 6.94603938,13.3256842 L12.8633079,16.7508146 L19.2284773,12.0625658 L14.5425549,18.4316076 L17.9638108,24.3434535 C18.0743045,24.5355448 18.2874964,24.6446199 18.5079254,24.6218379 C18.7283543,24.599056 18.9147317,24.4486843 18.9836031,24.2380551 L24.5947814,7.40299086 C24.6608522,7.2018883 24.6081367,6.98071875 24.4584575,6.83104001 C24.3087783,6.68136126 24.0876086,6.62864636 23.8865062,6.69471775 L7.05143356,12.305892 C6.96152185,12.3361187 6.88073967,12.3886441 6.81663473,12.4585606 L6.81663473,12.45855 Z" id="Path" fill="#FFC997"></path>
                            </g>
                        </g>
                    </g>
                </g>
            </g>
        </g>
    </g>
</svg>