<?xml version="1.0" encoding="UTF-8"?>
<svg width="24px" height="24px" viewBox="0 0 24 24" version="1.1" xmlns="http://www.w3.org/2000/svg" xmlns:xlink="http://www.w3.org/1999/xlink">
    <title>1F8871BA-B878-4A67-B9B0-D8B61509CFA6</title>
    <g id="Admin" stroke="none" stroke-width="1" fill="none" fill-rule="evenodd">
        <g id="Share-link-mail" transform="translate(-22.000000, -612.000000)">
            <g id="Group-10">
                <g id="Group-9" transform="translate(0.000000, 549.000000)">
                    <g id="Group-8" transform="translate(22.000000, 19.000000)">
                        <g id="Group" transform="translate(0.000000, 44.000000)">
                            <g id="atoms/icon/sms">
                                <g>
                                    <rect id="Rectangle" fill="#D8D8D8" opacity="0" x="0" y="0" width="24" height="24"></rect>
                                    <path d="M18.1737783,4 L5.68980373,4 C4.21143832,4 3,5.21143832 3,6.68980373 L3,14.3074921 C3,15.7858575 4.21143832,16.9972959 5.68980373,16.9972959 L6.65484781,16.9972959 L6.65484781,19.1327126 C6.65484781,19.3791068 6.79857778,19.5844353 7.00390631,19.7076324 C7.08603772,19.7486981 7.18870198,19.769231 7.29136625,19.769231 C7.41456337,19.769231 7.55829334,19.7281653 7.6609576,19.6460339 L11.3158054,16.9972959 L18.1737783,16.9972959 C19.6521437,16.9972959 20.863582,15.7858575 20.863582,14.3074921 L20.863582,6.68980373 C20.863582,5.21143832 19.6521437,4 18.1737783,4 Z M19.5905451,14.3074921 C19.5905451,15.0877405 18.9540267,15.724259 18.1737783,15.724259 L11.1104769,15.724259 C10.9667469,15.724259 10.8435498,15.7653247 10.7408855,15.8474561 L7.94841754,17.8802085 L7.94841754,16.3607774 C7.94841754,16.0117189 7.6609576,15.724259 7.3118991,15.724259 L5.71033658,15.724259 C4.93008817,15.724259 4.29356973,15.0877405 4.29356973,14.3074921 L4.29356973,6.68980373 C4.29356973,5.90955532 4.93008817,5.27303688 5.71033658,5.27303688 L18.1943111,5.27303688 C18.9745595,5.27303688 19.611078,5.90955532 19.611078,6.68980373 L19.611078,14.3074921 L19.5905451,14.3074921 Z M16.9212742,7.9628406 C16.9212742,8.3118991 16.6338143,8.59935904 16.2847558,8.59935904 L7.57882619,8.59935904 C7.22976769,8.59935904 6.94230775,8.3118991 6.94230775,7.9628406 C6.94230775,7.6137821 7.22976769,7.32632216 7.57882619,7.32632216 L16.264223,7.32632216 C16.6338143,7.32632216 16.9212742,7.6137821 16.9212742,7.9628406 Z M16.9212742,10.3446515 C16.9212742,10.69371 16.6338143,10.98117 16.2847558,10.98117 L7.57882619,10.98117 C7.22976769,10.98117 6.94230775,10.69371 6.94230775,10.3446515 C6.94230775,9.99559304 7.22976769,9.7081331 7.57882619,9.7081331 L16.264223,9.7081331 C16.6338143,9.7081331 16.9212742,9.99559304 16.9212742,10.3446515 Z M16.9212742,12.7264625 C16.9212742,13.075521 16.6338143,13.3629809 16.2847558,13.3629809 L7.57882619,13.3629809 C7.22976769,13.3629809 6.94230775,13.075521 6.94230775,12.7264625 C6.94230775,12.377404 7.22976769,12.089944 7.57882619,12.089944 L16.264223,12.089944 C16.6338143,12.089944 16.9212742,12.377404 16.9212742,12.7264625 Z" id="Shape" fill="#516F90"></path>
                                </g>
                            </g>
                        </g>
                    </g>
                </g>
            </g>
        </g>
    </g>
</svg>